<?xml version="1.0" encoding="UTF-8" standalone="no"?>
<svg
   xmlns:dc="http://purl.org/dc/elements/1.1/"
   xmlns:cc="http://creativecommons.org/ns#"
   xmlns:rdf="http://www.w3.org/1999/02/22-rdf-syntax-ns#"
   xmlns:svg="http://www.w3.org/2000/svg"
   xmlns="http://www.w3.org/2000/svg"
   xmlns:sodipodi="http://sodipodi.sourceforge.net/DTD/sodipodi-0.dtd"
   xmlns:inkscape="http://www.inkscape.org/namespaces/inkscape"
   id="svg4536"
   xml:space="preserve"
   enable-background="new 0 0 283.46 283.46"
   viewBox="0 0 162.87101 196.32001"
   height="196.32001"
   width="162.871"
   y="0px"
   x="0px"
   version="1.1"
   sodipodi:docname="logo.svg"
   inkscape:version="0.92.2 5c3e80d, 2017-08-06"><sodipodi:namedview
     pagecolor="#ffffff"
     bordercolor="#666666"
     borderopacity="1"
     objecttolerance="10"
     gridtolerance="10"
     guidetolerance="10"
     inkscape:pageopacity="0"
     inkscape:pageshadow="2"
     inkscape:window-width="1912"
     inkscape:window-height="1054"
     id="namedview4700"
     showgrid="false"
     inkscape:zoom="4.3704155"
     inkscape:cx="81.435501"
     inkscape:cy="98.160004"
     inkscape:window-x="0"
     inkscape:window-y="18"
     inkscape:window-maximized="0"
     inkscape:current-layer="svg4536" /><metadata
     id="metadata4542"><rdf:RDF><cc:Work
         rdf:about=""><dc:format>image/svg+xml</dc:format><dc:type
           rdf:resource="http://purl.org/dc/dcmitype/StillImage" /><dc:title /></cc:Work></rdf:RDF></metadata><defs
     id="defs4540" /><g
     transform="translate(-61.305,-46.919)"
     id="Symbol"
     style="fill:#316bb1;fill-opacity:1"><path
       id="path4485"
       d="m 139.759,225.674 c 0,0 2.671,0.445 5.931,0 v 6.508 c 1.729,1.041 2.885,2.936 2.885,5.102 0,3.289 -2.667,5.955 -5.956,5.955 -3.291,0 -5.958,-2.666 -5.958,-5.955 0,-2.254 1.251,-4.215 3.098,-5.227 v -6.355 z"
       style="fill:#316bb1;fill-opacity:1" /><path
       id="path4487"
       d="m 128.817,60.328 v 2.722 c 3.611,0.591 6.866,2.522 6.866,2.522 l 0.006,-18.653 h -6.868 l -0.001,3.578"
       style="fill:#316bb1;fill-opacity:1" /><line
       id="line4489"
       y2="60.327999"
       x2="128.817"
       y1="50.497002"
       x1="128.819"
       style="fill:#316bb1;fill-opacity:1" /><path
       id="path4491"
       d="m 149.728,65.631 c 2.569,-1.522 6.905,-2.431 6.905,-2.431 l -0.001,-16.261 h -6.869 -0.039 z"
       style="fill:#316bb1;fill-opacity:1" /><path
       id="path4493"
       d="m 149.731,169.629 0.022,-5.27 v -13.801 l -0.022,-76.794 c 3.543,-2.4 6.903,-3.265 6.903,-3.265 l 0.018,99.13 c 0,0 0.343,10.883 -10.962,13.898 v 34.613 c -3.486,0.811 -5.931,0 -5.931,0 v -34.613 h 0.002 C 128.457,180.511 128.8,169.629 128.8,169.629 h -0.002 l 0.017,-99.045 c 0,0 3.573,1.086 6.866,3.255 l -0.022,76.72 v 16.51 l 0.022,2.561 c 0,0 0.083,6.809 7.023,7.172 6.944,-0.364 7.027,-7.173 7.027,-7.173 z"
       style="fill:#316bb1;fill-opacity:1" /><path
       style="clip-rule:evenodd;fill-rule:evenodd;fill:#316bb1;fill-opacity:1"
       id="path4495"
       d="m 198.105,98.861 c 14.857,2.91 26.071,16.002 26.071,31.713 0,17.848 -14.468,32.316 -32.317,32.316 -10.009,0 -18.955,-4.549 -24.884,-11.695 v 0 c 0.456,-0.656 3.208,-2.047 3.507,-2.195 0,0 0.023,-0.021 0.038,0 5.17,5.982 12.812,9.77 21.339,9.77 15.57,0 28.192,-12.625 28.192,-28.195 0,-13.635 -9.679,-25.009 -22.541,-27.626 z" /><path
       style="clip-rule:evenodd;fill-rule:evenodd;fill:#316bb1;fill-opacity:1"
       id="path4497"
       d="m 162.975,145.084 c -2.197,-4.362 -3.433,-9.293 -3.433,-14.51 0,-17.601 14.073,-31.916 31.578,-32.309 0,0.001 0.135,1.062 -0.566,4.125 -0.003,0.016 -0.025,0.022 -0.025,0.022 -14.951,0.694 -26.862,13.036 -26.862,28.161 0,4.469 1.04,8.693 2.89,12.445 l -0.022,0.012 c -0.282,0.145 -3.107,1.613 -3.522,2.062 -0.002,0.002 -0.031,0.004 -0.038,-0.008 z" /><path
       id="path4499"
       d="m 151.41,182.463 c 0,0 1.856,-1.043 3.425,-3.107 l 0.012,-0.012 c 2.857,12.541 14.08,21.898 27.487,21.898 15.569,0 28.19,-12.625 28.19,-28.191 0,-4.486 -1.051,-8.721 -2.911,-12.492 -0.003,-0.012 0.012,-0.02 0.012,-0.02 0.207,-0.078 2.138,-0.816 3.554,-2.033 l 0.023,0.004 c 2.205,4.369 3.447,9.311 3.447,14.541 0,17.848 -14.47,32.316 -32.315,32.316 -14.575,0 -26.893,-9.646 -30.924,-22.904 z"
       style="fill:#316bb1;fill-opacity:1" /><path
       id="path4501"
       d="m 137.267,164.293 c 1.762,-0.344 3.579,-0.525 5.438,-0.525 1.855,0 3.666,0.18 5.419,0.521 v -0.029 -4.162 c -1.762,-0.297 -3.57,-0.455 -5.419,-0.455 -1.854,0 -3.668,0.158 -5.438,0.455 z"
       style="fill:#316bb1;fill-opacity:1" /><path
       id="path4503"
       d="m 143.743,112.325 c 2.008,-2.813 3.515,-6.013 4.381,-9.464 0,0 0,6.457 0,10.335 -0.424,0.673 -0.838,1.355 -1.346,1.966 -0.083,0.103 -0.168,0.205 -0.253,0.306 -1.973,-1.694 -2.782,-3.143 -2.782,-3.143 z"
       style="fill:#316bb1;fill-opacity:1" /><path
       id="path4505"
       d="m 148.124,123.887 v -4.921 c -5.259,-3.771 -9.166,-9.311 -10.857,-15.746 v 10.171 c 2.739,4.296 6.464,7.9 10.857,10.496 z"
       style="fill:#316bb1;fill-opacity:1" /><path
       id="path4507"
       d="m 165.354,128.258 c 0.048,-2.492 0.688,-4.085 0.688,-4.085 0.14,-0.012 0.214,-0.021 0.214,-0.021 14.792,-0.863 26.523,-13.133 26.523,-28.144 0,-15.571 -12.622,-28.192 -28.192,-28.192 -6.631,0 -12.727,2.29 -17.543,6.121 -1.246,-1.581 -2.843,-3.079 -2.843,-3.079 5.556,-4.512 12.641,-7.215 20.354,-7.215 17.85,0 32.317,14.469 32.317,32.316 0,17.481 -13.878,31.72 -31.219,32.299 0,0 -0.101,0.005 -0.28,0.012 0.002,0 -0.019,0.003 -0.019,-0.012 z"
       style="fill:#316bb1;fill-opacity:1" /><path
       id="path4509"
       d="m 127.188,168.42 v -4.814 c -10.011,5.492 -16.798,16.131 -16.798,28.354 0,17.85 14.468,32.32 32.315,32.32 13.067,0 24.321,-7.758 29.417,-18.912 0,0 -2.322,-0.568 -3.847,-1.52 -4.483,9.631 -14.246,16.305 -25.571,16.305 -15.568,0 -28.191,-12.619 -28.191,-28.193 0,-9.837 5.036,-18.495 12.675,-23.54 z"
       style="fill:#316bb1;fill-opacity:1" /><path
       id="path4511"
       d="m 127.188,127.643 v -4.22 c -2.059,0.477 -4.202,0.729 -6.404,0.729 -12.814,0 -23.63,-8.547 -27.059,-20.252 l -0.006,-0.02 c -2.263,-0.004 -4.166,0.426 -4.166,0.426 3.681,13.804 16.268,23.971 31.23,23.971 2.192,0.001 4.334,-0.217 6.405,-0.634 z"
       style="fill:#316bb1;fill-opacity:1" /><path
       id="path4513"
       d="m 158.281,168.412 v -4.723 l -0.001,-0.051 c 9.98,5.498 16.742,16.121 16.742,28.32 0,2.215 -0.224,4.379 -0.645,6.467 -2.523,-0.594 -3.922,-1.465 -3.922,-1.465 l 0.002,-0.01 c 0.287,-1.619 0.439,-3.289 0.439,-4.992 0,-9.809 -5.01,-18.449 -12.617,-23.498 z"
       style="fill:#316bb1;fill-opacity:1" /><path
       id="path4515"
       d="m 158.281,158.334 v -6.869 c 5.916,-6.588 14.5,-10.732 24.053,-10.732 9.94,0 18.834,4.49 24.762,11.551 v 0 c 0,0 -1.17,1.244 -3.522,2.207 l -0.027,-0.008 c -5.164,-5.898 -12.755,-9.623 -21.212,-9.623 -10.18,-0.001 -19.098,5.394 -24.054,13.474 z"
       style="fill:#316bb1;fill-opacity:1" /><path
       id="path4517"
       d="m 116.76,197.762 c 0.33,1.852 1.281,3.992 1.281,3.992 7.637,-3.961 13.49,-10.879 16.047,-19.24 -0.207,-0.119 -2.189,-1.314 -3.41,-3.217 -1.798,7.953 -6.963,14.635 -13.918,18.465 z"
       style="fill:#316bb1;fill-opacity:1" /><path
       id="path4519"
       d="m 111.166,204.371 c -2.553,0.65 -5.229,0.996 -7.986,0.996 -17.849,0 -32.317,-14.469 -32.317,-32.316 0,-17.852 14.468,-32.318 32.317,-32.318 4.816,0 9.385,1.055 13.489,2.943 h 0.002 c 0,0 -0.893,1.742 -2.414,3.439 -3.401,-1.451 -7.146,-2.256 -11.078,-2.256 -15.572,0 -28.193,12.619 -28.193,28.191 0,15.566 12.621,28.191 28.193,28.191 2.337,0 4.608,-0.285 6.777,-0.818 0.43,2.214 1.072,3.653 1.21,3.948 z"
       style="fill:#316bb1;fill-opacity:1" /><path
       id="path4521"
       d="m 127.188,151.416 c -1.287,-1.426 -2.701,-2.742 -4.222,-3.922 0,0 -0.672,1.502 -2.239,3.461 l -0.013,0.016 c 2.556,2.033 4.751,4.502 6.474,7.291 z"
       style="fill:#316bb1;fill-opacity:1" /><path
       style="clip-rule:evenodd;fill-rule:evenodd;fill:#316bb1;fill-opacity:1"
       id="path4523"
       d="m 73.853,156.125 c -0.006,0.008 -0.006,0.012 -0.006,0.012 l -0.016,-0.012 c -7.621,-5.914 -12.526,-15.161 -12.526,-25.551 0,-17.848 14.47,-32.317 32.319,-32.317 14.918,0 27.475,10.11 31.196,23.852 l -0.019,0.007 c -0.172,0.067 -1.575,0.568 -4.139,0.456 l -0.004,-0.019 c -3.458,-11.663 -14.251,-20.17 -27.034,-20.17 -15.572,0 -28.193,12.623 -28.193,28.192 0,8.952 4.173,16.934 10.683,22.096 -1.725,2.436 -2.204,3.343 -2.261,3.454 z" /><path
       id="path4525"
       d="m 125.924,129.551 c -2.459,0.321 -4.119,0.292 -4.119,0.292 0.008,0.243 0.009,0.486 0.009,0.731 0,15.57 -12.621,28.195 -28.19,28.195 -3.958,0 -7.726,-0.82 -11.143,-2.289 l -0.01,-0.006 c 0,0 -1.327,1.361 -2.345,3.439 l -0.014,0.027 c 4.111,1.891 8.687,2.949 13.512,2.949 17.846,0 32.314,-14.469 32.314,-32.316 0,-0.341 -0.003,-0.681 -0.014,-1.022 z"
       style="fill:#316bb1;fill-opacity:1" /><path
       id="path4527"
       d="m 88.484,97.056 c 1.539,-0.25 4.117,-0.343 4.117,-0.343 -0.006,-0.249 -0.01,-0.5 -0.01,-0.752 0,-15.57 12.623,-28.192 28.193,-28.192 13.19,0 24.263,9.058 27.34,21.293 0,0 0,-6.973 0,-10.337 -5.723,-9.062 -15.831,-15.082 -27.34,-15.082 -17.849,0 -32.317,14.469 -32.317,32.318 0,0.366 0.006,0.731 0.017,1.095 z"
       style="fill:#316bb1;fill-opacity:1" /><path
       id="path4529"
       d="m 141.506,79.779 c -1.645,-1.921 -2.886,-3.045 -2.886,-3.045 -0.475,0.636 -0.926,1.289 -1.354,1.96 v 10.171 c 0.872,-3.305 2.323,-6.372 4.24,-9.086 z"
       style="fill:#316bb1;fill-opacity:1" /><path
       id="path4531"
       d="m 137.267,119.007 c 0.49,-0.354 0.97,-0.723 1.438,-1.106 1.381,1.93 2.763,3.176 2.763,3.176 -1.317,1.092 -2.723,2.083 -4.201,2.961 0,0 0,-5.032 0,-5.031 z"
       style="fill:#316bb1;fill-opacity:1" /></g><g
     transform="translate(-61.305,-46.919)"
     id="Text" /><g
     transform="translate(-61.305,-46.919)"
     id="Ring" /></svg>