<svg xmlns="http://www.w3.org/2000/svg" height="196.32" width="162.871"><path d="M78.454 178.755s2.671.445 5.931 0v6.508a5.956 5.956 0 0 1-3.071 11.057 5.956 5.956 0 0 1-2.86-11.182v-6.355zM67.512 13.409v2.722c3.611.591 6.866 2.522 6.866 2.522L74.384 0h-6.868l-.001 3.578M67.514 3.578l-.002 9.831M88.423 18.712c2.569-1.522 6.905-2.431 6.905-2.431L95.327.02H88.419zM88.426 122.71l.022-5.27v-13.801l-.022-76.794c3.543-2.4 6.903-3.265 6.903-3.265l.018 99.13s.343 10.883-10.962 13.898v34.613c-3.486.811-5.931 0-5.931 0v-34.613h.002c-11.304-3.016-10.961-13.898-10.961-13.898h-.002l.017-99.045s3.573 1.086 6.866 3.255l-.022 76.72v16.51l.022 2.561s.083 6.809 7.023 7.172c6.944-.364 7.027-7.173 7.027-7.173z"/><path d="M136.8 51.942c14.857 2.91 26.071 16.002 26.071 31.713 0 17.848-14.468 32.316-32.317 32.316-10.009 0-18.955-4.549-24.884-11.695.456-.656 3.208-2.047 3.507-2.195 0 0 .023-.021.038 0 5.17 5.982 12.812 9.77 21.339 9.77 15.57 0 28.192-12.625 28.192-28.195 0-13.635-9.679-25.009-22.541-27.626zM101.67 98.165a32.17 32.17 0 0 1-3.433-14.51c0-17.601 14.073-31.916 31.578-32.309 0 .001.135 1.062-.566 4.125-.003.016-.025.022-.025.022-14.951.694-26.862 13.036-26.862 28.161 0 4.469 1.04 8.693 2.89 12.445l-.022.012c-.282.145-3.107 1.613-3.522 2.062-.002.002-.031.004-.038-.008z" clip-rule="evenodd" fill-rule="evenodd"/><path d="M90.105 135.544s1.856-1.043 3.425-3.107l.012-.012c2.857 12.541 14.08 21.898 27.487 21.898 15.569 0 28.19-12.625 28.19-28.191 0-4.486-1.051-8.721-2.911-12.492-.003-.012.012-.02.012-.02.207-.078 2.138-.816 3.554-2.033l.023.004a32.187 32.187 0 0 1 3.447 14.541c0 17.848-14.47 32.316-32.315 32.316-14.575 0-26.893-9.646-30.924-22.904zM75.962 117.374a28.35 28.35 0 0 1 5.438-.525c1.855 0 3.666.18 5.419.521v-4.191a32.562 32.562 0 0 0-10.857 0zM82.438 65.406a28.037 28.037 0 0 0 4.381-9.464v10.335c-.424.673-.838 1.355-1.346 1.966-.083.103-.168.205-.253.306-1.973-1.694-2.782-3.143-2.782-3.143zM86.819 76.968v-4.921a28.237 28.237 0 0 1-10.857-15.746v10.171a32.493 32.493 0 0 0 10.857 10.496zM104.049 81.339c.048-2.492.688-4.085.688-4.085a6.77 6.77 0 0 0 .214-.021c14.792-.863 26.523-13.133 26.523-28.144 0-15.571-12.622-28.192-28.192-28.192a28.082 28.082 0 0 0-17.543 6.121c-1.246-1.581-2.843-3.079-2.843-3.079a32.178 32.178 0 0 1 20.354-7.215c17.85 0 32.317 14.469 32.317 32.316 0 17.481-13.878 31.72-31.219 32.299l-.28.012c.002 0-.019.003-.019-.012z"/><path d="M65.883 121.501v-4.814c-10.011 5.492-16.798 16.131-16.798 28.354 0 17.85 14.468 32.32 32.315 32.32 13.067 0 24.321-7.758 29.417-18.912 0 0-2.322-.568-3.847-1.52-4.483 9.631-14.246 16.305-25.571 16.305-15.568 0-28.191-12.619-28.191-28.193 0-9.837 5.036-18.495 12.675-23.54zM65.883 80.724v-4.22a28.343 28.343 0 0 1-6.404.729c-12.814 0-23.63-8.547-27.059-20.252l-.006-.02c-2.263-.004-4.166.426-4.166.426 3.681 13.804 16.268 23.971 31.23 23.971a32.35 32.35 0 0 0 6.405-.634zM96.976 121.493v-4.723l-.001-.051c9.98 5.498 16.742 16.121 16.742 28.32 0 2.215-.224 4.379-.645 6.467-2.523-.594-3.922-1.465-3.922-1.465l.002-.01c.287-1.619.439-3.289.439-4.992 0-9.809-5.01-18.449-12.617-23.498zM96.976 111.415v-6.869c5.916-6.588 14.5-10.732 24.053-10.732 9.94 0 18.834 4.49 24.762 11.551 0 0-1.17 1.244-3.522 2.207l-.027-.008c-5.164-5.898-12.755-9.623-21.212-9.623-10.18-.001-19.098 5.394-24.054 13.474z"/><path d="M55.455 150.843c.33 1.852 1.281 3.992 1.281 3.992 7.637-3.961 13.49-10.879 16.047-19.24-.207-.119-2.189-1.314-3.41-3.217-1.798 7.953-6.963 14.635-13.918 18.465zM49.861 157.452c-2.553.65-5.229.996-7.986.996-17.849 0-32.317-14.469-32.317-32.316 0-17.852 14.468-32.318 32.317-32.318 4.816 0 9.385 1.055 13.489 2.943h.002s-.893 1.742-2.414 3.439a28.166 28.166 0 0 0-11.078-2.256c-15.572 0-28.193 12.619-28.193 28.191 0 15.566 12.621 28.191 28.193 28.191 2.337 0 4.608-.285 6.777-.818.43 2.214 1.072 3.653 1.21 3.948zM65.883 104.497a32.668 32.668 0 0 0-4.222-3.922s-.672 1.502-2.239 3.461l-.013.016a28.384 28.384 0 0 1 6.474 7.291z"/><path d="M12.548 109.206c-.006.008-.006.012-.006.012l-.016-.012C4.905 103.292 0 94.045 0 83.655c0-17.848 14.47-32.317 32.319-32.317 14.918 0 27.475 10.11 31.196 23.852l-.019.007c-.172.067-1.575.568-4.139.456l-.004-.019c-3.458-11.663-14.251-20.17-27.034-20.17-15.572 0-28.193 12.623-28.193 28.192 0 8.952 4.173 16.934 10.683 22.096-1.725 2.436-2.204 3.343-2.261 3.454z" clip-rule="evenodd" fill-rule="evenodd"/><path d="M64.619 82.632c-2.459.321-4.119.292-4.119.292.008.243.009.486.009.731 0 15.57-12.621 28.195-28.19 28.195-3.958 0-7.726-.82-11.143-2.289l-.01-.006s-1.327 1.361-2.345 3.439l-.014.027a32.25 32.25 0 0 0 13.512 2.949c17.846 0 32.314-14.469 32.314-32.316 0-.341-.003-.681-.014-1.022zM27.179 50.137c1.539-.25 4.117-.343 4.117-.343-.006-.249-.01-.5-.01-.752 0-15.57 12.623-28.192 28.193-28.192 13.19 0 24.263 9.058 27.34 21.293V31.806c-5.723-9.062-15.831-15.082-27.34-15.082-17.849 0-32.317 14.469-32.317 32.318 0 .366.006.731.017 1.095z"/><path d="M80.201 32.86c-1.645-1.921-2.886-3.045-2.886-3.045a32.312 32.312 0 0 0-1.354 1.96v10.171a28.222 28.222 0 0 1 4.24-9.086zM75.962 72.088c.49-.354.97-.723 1.438-1.106 1.381 1.93 2.763 3.176 2.763 3.176a32.946 32.946 0 0 1-4.201 2.961v-5.031z"/></svg>